<?xml version="1.0" standalone="no"?>
<!DOCTYPE svg PUBLIC "-//W3C//DTD SVG 20010904//EN"
 "http://www.w3.org/TR/2001/REC-SVG-20010904/DTD/svg10.dtd">
<svg version="1.0" xmlns="http://www.w3.org/2000/svg"
 width="1024.000000pt" height="1024.000000pt" viewBox="0 0 1024.000000 1024.000000"
 preserveAspectRatio="xMidYMid meet">
<metadata>
Created by potrace 1.11, written by Peter Selinger 2001-2013
</metadata>
<g transform="translate(0.000000,1024.000000) scale(0.100000,-0.100000)"
fill="#000000" stroke="none">
<path d="M5047 10084 c-4 -4 -53 -8 -109 -10 -139 -3 -358 -19 -413 -30 -11
-2 -43 -7 -71 -9 -28 -3 -62 -8 -75 -11 -13 -3 -37 -7 -54 -9 -16 -1 -30 -4
-30 -5 0 -2 -26 -7 -75 -13 -75 -11 -340 -70 -382 -86 -13 -5 -25 -8 -28 -8
-10 0 -130 -36 -250 -76 -69 -23 -127 -41 -130 -42 -5 0 -53 -19 -127 -51 -17
-8 -38 -14 -47 -14 -9 0 -16 -4 -16 -8 0 -5 -6 -9 -12 -9 -13 0 -30 -7 -186
-79 -41 -19 -78 -34 -83 -34 -5 0 -9 -4 -9 -10 0 -5 -6 -10 -12 -10 -7 0 -24
-6 -38 -13 -135 -71 -246 -131 -250 -136 -3 -3 -22 -15 -44 -26 -35 -18 -293
-184 -341 -219 -148 -108 -195 -143 -220 -165 -17 -14 -48 -39 -69 -56 -21
-16 -48 -39 -61 -50 -12 -11 -48 -42 -81 -70 -143 -121 -478 -473 -584 -615
-14 -18 -32 -41 -40 -50 -37 -45 -47 -58 -80 -105 -19 -27 -39 -54 -43 -60 -4
-5 -25 -35 -47 -65 -22 -30 -44 -61 -50 -67 -6 -7 -8 -13 -5 -13 2 0 -2 -8
-10 -17 -8 -10 -15 -22 -14 -27 0 -5 -3 -12 -9 -15 -12 -8 -82 -119 -82 -131
0 -6 -4 -10 -9 -10 -5 0 -11 -8 -14 -17 -4 -10 -22 -45 -42 -78 -31 -53 -157
-292 -160 -305 -1 -3 -18 -40 -38 -84 -20 -43 -37 -80 -37 -82 0 -2 -11 -27
-24 -56 -13 -29 -38 -91 -56 -138 -17 -47 -35 -94 -40 -105 -11 -27 -34 -99
-31 -103 1 -1 -6 -16 -14 -32 -8 -16 -16 -33 -16 -37 -1 -5 -3 -12 -5 -18 -11
-30 -36 -132 -37 -147 -1 -10 -6 -18 -11 -18 -5 0 -7 -3 -3 -6 3 -3 1 -18 -5
-33 -5 -14 -12 -37 -15 -51 -2 -14 -9 -43 -14 -65 -5 -22 -12 -51 -15 -65 -3
-14 -7 -29 -8 -35 -4 -14 -16 -75 -21 -100 -2 -11 -4 -20 -5 -20 -1 0 -3 -11
-5 -25 -2 -14 -10 -66 -18 -115 -9 -50 -18 -115 -22 -145 -4 -30 -10 -84 -15
-120 -4 -36 -8 -72 -8 -80 0 -8 -4 -55 -8 -105 -19 -207 -8 -717 20 -930 3
-22 8 -62 12 -90 3 -27 7 -61 10 -75 8 -44 14 -84 19 -115 2 -16 8 -46 12 -65
4 -19 7 -47 7 -62 1 -16 4 -28 7 -28 4 0 9 -15 12 -32 3 -18 7 -40 9 -48 3 -8
8 -33 12 -55 4 -22 10 -47 13 -55 4 -8 5 -21 4 -28 -1 -8 2 -19 7 -25 5 -7 15
-40 23 -75 7 -34 17 -62 23 -62 5 0 7 -3 4 -6 -10 -10 64 -236 142 -434 12
-30 22 -61 23 -67 0 -7 4 -13 9 -13 4 0 8 -4 8 -10 0 -17 103 -245 115 -252 5
-4 7 -8 4 -8 -3 0 9 -28 27 -63 18 -34 44 -84 58 -112 14 -27 39 -72 56 -100
16 -27 40 -69 52 -92 12 -24 26 -43 30 -43 4 0 8 -5 8 -11 0 -5 18 -37 40 -69
22 -32 40 -62 40 -65 0 -4 6 -13 12 -20 28 -31 38 -44 38 -50 0 -4 6 -13 13
-20 6 -8 22 -29 35 -47 66 -95 121 -168 235 -308 95 -116 369 -400 488 -505
168 -148 329 -277 434 -348 33 -22 62 -43 65 -47 6 -8 242 -160 295 -190 22
-13 65 -37 95 -53 30 -17 57 -34 58 -39 2 -4 12 -8 23 -8 10 0 19 -5 19 -12 0
-6 3 -8 7 -5 3 4 13 1 22 -6 9 -8 32 -20 51 -27 19 -7 42 -19 50 -25 8 -6 85
-42 170 -79 85 -38 163 -72 174 -78 10 -5 27 -11 37 -13 18 -4 78 -28 111 -46
10 -5 27 -9 37 -9 11 0 23 -5 26 -10 4 -6 11 -8 16 -5 5 4 9 1 9 -5 0 -6 4 -9
10 -5 5 3 17 1 27 -5 29 -16 402 -122 478 -136 11 -1 49 -10 85 -18 59 -13
108 -22 165 -31 11 -2 34 -6 50 -9 17 -3 50 -9 75 -12 52 -6 93 -12 135 -18
44 -7 172 -18 231 -21 28 -1 55 -4 60 -6 5 -3 62 -4 126 -4 65 0 118 -4 118
-8 0 -4 8 -3 18 2 13 7 22 7 29 0 8 -8 17 -7 32 0 15 8 21 9 21 1 0 -6 5 -8
12 -3 7 4 62 8 123 9 146 3 367 20 488 38 20 3 54 8 75 11 80 11 272 48 367
70 55 13 111 26 125 29 14 2 46 11 73 19 26 8 47 13 47 10 0 -3 6 -1 13 5 6 5
28 13 47 18 19 4 40 9 45 10 73 18 451 160 473 177 6 5 12 7 12 4 0 -7 232
101 284 131 20 12 41 22 46 22 5 0 32 13 60 30 28 16 53 30 55 30 2 0 45 25
96 55 50 30 93 55 94 55 4 0 116 74 225 147 75 51 277 199 290 213 3 3 28 23
55 44 28 22 57 47 66 55 9 9 38 34 64 56 67 56 390 379 446 445 26 30 63 75
83 100 20 25 45 54 55 65 64 71 315 423 320 450 2 6 9 14 17 18 8 5 12 12 9
18 -4 5 -1 9 4 9 6 0 11 7 11 15 0 8 5 15 10 15 6 0 10 7 10 15 0 8 5 15 10
15 6 0 10 5 10 11 0 5 24 51 54 102 76 130 212 404 208 420 -1 4 2 7 8 7 5 0
10 9 10 20 0 11 4 20 8 20 5 0 9 6 9 13 0 6 7 28 16 47 36 77 137 353 137 373
0 4 6 20 14 36 9 16 18 43 21 61 3 19 8 37 11 42 3 4 7 18 9 29 4 22 22 82 32
109 3 8 7 22 8 30 4 27 14 70 19 88 6 18 16 65 21 97 2 11 4 20 5 20 2 0 4 9
6 20 1 11 5 34 8 50 3 17 8 44 11 60 3 17 7 41 10 55 13 62 21 116 30 185 3
28 8 68 11 90 3 22 7 60 9 85 2 25 7 86 12 135 18 216 5 772 -22 935 -2 14 -7
51 -10 82 -3 32 -10 82 -16 110 -5 29 -12 69 -15 88 -10 64 -40 210 -48 238
-3 9 -7 28 -10 42 -2 14 -9 45 -15 70 -7 25 -14 56 -17 70 -3 13 -9 29 -15 36
-5 6 -7 13 -4 16 10 10 -131 427 -180 535 -8 17 -15 34 -15 39 0 4 -14 37 -31
73 -30 64 -51 111 -54 121 -3 14 -140 278 -161 311 -13 21 -24 43 -24 49 0 5
-4 10 -10 10 -5 0 -10 4 -10 10 0 8 -91 167 -112 195 -4 6 -33 48 -64 95 -80
119 -224 310 -235 310 -5 0 -8 4 -6 9 2 9 -27 46 -166 206 -97 112 -468 475
-486 475 -3 0 -24 17 -46 38 -53 49 -250 201 -352 270 -71 49 -281 185 -293
190 -8 3 -37 19 -65 35 -96 57 -386 207 -399 207 -3 0 -36 14 -73 31 -37 17
-78 35 -90 40 -13 5 -33 13 -45 19 -22 9 -77 31 -88 35 -3 1 -12 5 -20 8 -8 4
-58 21 -110 38 -52 17 -99 34 -105 37 -5 4 -14 7 -20 8 -5 1 -50 14 -100 29
-49 14 -101 28 -114 31 -14 3 -27 7 -31 9 -5 3 -204 51 -255 61 -11 2 -31 6
-45 9 -14 2 -38 7 -55 10 -16 3 -43 8 -60 11 -61 12 -79 15 -197 29 -55 7
-101 13 -163 20 -143 17 -448 29 -530 21 -11 -1 -23 2 -26 6 -3 5 -8 5 -12 2z
m238 -971 c50 -1 117 -4 150 -7 107 -9 169 -15 205 -21 19 -2 60 -7 90 -11 30
-3 57 -9 60 -12 3 -4 25 -8 50 -10 74 -6 393 -86 530 -133 46 -16 63 -21 75
-25 35 -9 132 -47 141 -55 6 -5 14 -6 17 -2 4 3 7 1 7 -5 0 -7 3 -11 8 -10 15
3 68 -15 86 -31 10 -9 21 -15 25 -14 17 4 256 -116 423 -214 62 -36 178 -108
193 -121 12 -9 130 -92 153 -107 9 -5 30 -23 48 -38 18 -16 36 -29 40 -30 5
-1 18 -11 29 -22 12 -11 33 -29 47 -40 114 -89 391 -362 498 -490 36 -43 70
-83 75 -89 19 -21 102 -131 138 -183 20 -29 45 -62 54 -73 10 -11 16 -23 15
-27 -2 -3 0 -9 5 -12 11 -8 104 -153 138 -216 15 -27 31 -54 35 -60 9 -12 95
-184 140 -280 64 -136 155 -376 191 -505 7 -25 14 -49 15 -55 18 -62 37 -133
39 -145 2 -8 4 -15 5 -15 1 0 3 -11 5 -25 2 -14 11 -56 20 -95 8 -38 18 -86
21 -105 2 -19 7 -46 10 -60 2 -14 6 -35 8 -47 3 -12 7 -49 11 -82 3 -33 8 -68
10 -79 25 -133 25 -738 0 -882 -4 -24 -15 -107 -20 -160 -2 -14 -4 -25 -5 -25
-1 0 -3 -11 -5 -25 -1 -14 -5 -38 -8 -55 -4 -16 -9 -43 -11 -60 -9 -48 -15
-75 -20 -93 -3 -9 -8 -30 -11 -47 -4 -23 -37 -148 -58 -220 -2 -5 -7 -26 -11
-45 -5 -19 -11 -39 -14 -45 -4 -5 -7 -14 -8 -20 -4 -22 -65 -186 -104 -280
-23 -55 -42 -106 -42 -112 -1 -7 -4 -13 -8 -13 -3 0 -17 -26 -30 -57 -13 -32
-34 -74 -46 -94 -13 -20 -20 -40 -17 -43 4 -3 1 -6 -5 -6 -7 0 -11 -3 -10 -7
3 -12 -35 -83 -44 -83 -4 0 -8 -5 -8 -12 0 -37 -327 -528 -352 -528 -4 0 -8
-5 -8 -10 0 -11 -11 -26 -41 -58 -9 -9 -45 -51 -80 -92 -71 -85 -293 -307
-389 -390 -34 -30 -69 -60 -76 -67 -7 -7 -15 -13 -19 -13 -4 0 -12 -6 -19 -13
-7 -6 -28 -23 -46 -37 -18 -14 -42 -33 -54 -42 -11 -10 -25 -21 -31 -26 -5 -4
-35 -25 -67 -45 -31 -21 -62 -44 -68 -52 -7 -8 -17 -15 -22 -15 -5 0 -42 -23
-83 -50 -41 -28 -76 -50 -79 -50 -3 0 -39 -20 -79 -45 -41 -25 -80 -45 -86
-45 -6 0 -11 -4 -11 -10 0 -5 -9 -10 -20 -10 -11 0 -20 -4 -20 -10 0 -5 -9
-10 -20 -10 -11 0 -20 -3 -20 -8 0 -4 -15 -14 -32 -21 -18 -8 -67 -30 -108
-50 -41 -19 -79 -36 -85 -37 -5 -2 -44 -17 -85 -34 -170 -72 -597 -201 -720
-216 -19 -3 -46 -7 -60 -10 -50 -10 -98 -17 -267 -39 -77 -10 -191 -17 -303
-20 -63 -2 -116 -4 -117 -5 -6 -5 -29 -6 -37 -2 -5 3 -65 6 -135 8 -162 5
-249 11 -381 30 -14 2 -43 6 -64 8 -22 3 -62 10 -90 15 -28 6 -67 13 -86 16
-19 3 -42 8 -50 10 -8 2 -28 7 -45 9 -34 6 -322 84 -345 93 -8 3 -17 7 -20 8
-3 0 -36 12 -75 25 -38 13 -72 25 -75 25 -6 2 -56 22 -85 34 -11 5 -56 23
-100 41 -100 42 -395 189 -413 207 -7 7 -24 16 -38 19 -13 3 -24 9 -24 13 0 4
-12 13 -26 20 -28 13 -277 176 -297 194 -6 7 -39 32 -72 57 -33 24 -68 51 -77
60 -9 8 -23 20 -30 25 -165 127 -479 451 -612 630 -17 22 -33 42 -36 45 -23
18 -230 332 -230 348 0 7 -4 12 -9 12 -8 0 -42 58 -75 127 -6 13 -14 23 -18
23 -5 0 -8 4 -8 10 0 5 -29 69 -64 142 -83 171 -117 246 -121 268 -2 10 -13
38 -24 63 -17 37 -92 262 -107 317 -2 8 -8 35 -15 60 -6 25 -14 52 -17 60 -3
8 -6 20 -7 25 -1 11 -17 84 -21 100 -6 21 -35 172 -40 205 -2 19 -7 44 -9 55
-2 11 -7 47 -11 79 -3 33 -7 68 -10 79 -6 33 -17 218 -18 304 -1 46 -5 83 -9
83 -5 0 -5 5 -2 10 4 6 6 38 6 73 -1 34 -1 69 -1 77 -1 8 2 42 4 75 3 33 7 94
10 135 11 145 26 257 53 400 8 47 17 94 18 105 2 11 8 34 15 50 6 17 11 32 10
35 -3 18 14 90 22 90 5 0 7 4 4 8 -3 5 2 31 10 58 9 27 18 60 20 73 5 24 49
160 64 196 15 38 35 90 37 100 5 26 68 170 75 173 4 2 8 10 8 18 0 39 196 399
310 569 41 61 85 127 99 148 13 20 29 37 33 37 5 0 7 4 4 8 -3 5 3 16 12 25 9
8 22 22 27 29 23 30 91 114 100 124 6 6 32 38 60 70 64 75 329 341 376 376 20
14 53 42 75 62 21 19 84 69 139 110 55 41 105 80 112 86 7 5 15 10 18 10 3 0
15 8 26 18 10 11 32 25 47 33 15 8 29 16 32 19 9 9 120 80 125 80 3 0 24 11
46 26 60 38 115 67 249 133 8 5 24 13 35 18 32 17 175 83 179 83 2 0 21 8 42
17 22 9 44 17 49 17 6 1 19 6 30 12 23 13 130 49 130 44 0 -2 10 2 23 9 21 11
231 76 277 85 11 3 58 14 105 25 81 19 107 25 175 36 17 3 44 8 60 12 17 3 44
8 60 9 60 7 101 12 155 19 91 12 147 15 323 19 93 3 171 7 175 10 3 4 8 3 11
-1 3 -5 47 -9 96 -10z"/>
<path d="M3507 6723 c-4 -3 -28 -8 -53 -10 -75 -5 -115 -15 -184 -46 -14 -6
-27 -11 -30 -11 -15 -3 -90 -51 -90 -58 0 -4 -6 -8 -12 -8 -7 0 -43 -32 -80
-70 -78 -83 -141 -201 -163 -306 -18 -89 -12 -268 10 -304 4 -6 9 -22 11 -37
11 -58 96 -194 161 -256 100 -95 253 -164 384 -172 26 -1 52 -6 58 -9 6 -4 11
-4 11 1 0 4 17 8 38 9 53 0 112 11 147 25 17 7 36 11 43 10 6 -1 12 3 12 9 0
5 9 10 19 10 11 0 21 3 23 8 2 4 21 16 42 27 66 34 220 197 231 245 1 3 12 28
24 55 24 53 53 173 45 186 -2 4 0 10 6 14 6 4 8 11 4 16 -3 5 -7 38 -9 72 -4
74 -20 148 -41 188 -8 16 -12 29 -10 29 6 0 -46 90 -64 113 -49 63 -116 126
-169 160 -36 23 -67 42 -70 43 -3 0 -24 8 -46 18 -22 10 -51 20 -65 22 -14 3
-34 8 -45 11 -11 4 -39 7 -62 8 -23 0 -45 4 -49 8 -9 9 -19 9 -27 0z"/>
<path d="M6707 6723 c-4 -3 -28 -8 -53 -10 -75 -5 -115 -15 -184 -46 -14 -6
-28 -11 -31 -11 -23 -3 -147 -97 -189 -144 -45 -50 -110 -149 -117 -177 -1 -5
-12 -37 -24 -70 -30 -82 -34 -249 -8 -343 34 -120 71 -187 159 -284 37 -41
158 -131 179 -134 3 0 24 -8 46 -18 22 -10 51 -20 65 -23 44 -9 55 -11 55 -13
0 -1 20 -3 45 -4 25 -1 51 -5 58 -9 6 -5 18 -5 24 -1 7 5 31 9 53 10 22 1 51
5 65 9 14 3 32 8 40 9 18 3 41 11 105 39 48 21 176 112 184 129 1 5 19 26 37
46 38 41 111 180 119 227 2 17 9 45 14 63 16 56 6 229 -19 301 -38 112 -65
158 -150 253 -37 41 -158 131 -179 134 -3 0 -24 8 -46 18 -22 10 -51 20 -65
22 -14 3 -34 8 -45 11 -11 4 -39 7 -62 8 -23 0 -45 4 -49 8 -9 9 -19 9 -27 0z"/>
<path d="M2997 4154 c-1 -2 -17 -4 -35 -6 -18 -1 -32 -6 -32 -10 0 -4 -7 -8
-15 -8 -19 0 -113 -47 -132 -65 -7 -8 -24 -22 -38 -33 -40 -32 -109 -141 -130
-207 -19 -61 -25 -169 -13 -235 13 -71 54 -163 95 -210 13 -14 44 -50 70 -80
135 -154 357 -356 508 -459 28 -19 52 -38 55 -41 10 -12 142 -90 151 -90 6 0
8 -4 5 -9 -3 -5 5 -12 18 -15 14 -3 31 -12 38 -19 23 -23 340 -176 439 -212
116 -42 185 -67 199 -70 8 -2 27 -8 43 -14 15 -6 27 -8 27 -5 0 4 7 1 15 -6 8
-7 22 -10 30 -6 8 3 15 2 15 -3 0 -4 6 -8 13 -9 6 0 22 -3 35 -6 70 -18 99
-25 137 -31 27 -4 116 -22 123 -24 5 -2 8 -3 47 -6 22 -3 58 -7 80 -10 116
-14 217 -19 375 -18 147 0 335 8 335 13 0 1 15 3 34 5 19 2 53 7 75 10 23 4
55 8 71 9 17 2 39 6 50 9 19 6 66 15 110 22 11 1 27 5 35 9 8 3 29 8 45 11 32
6 57 12 65 15 3 1 10 3 15 5 6 1 12 3 15 4 3 2 12 4 20 6 34 7 190 59 260 86
85 33 84 33 202 88 47 23 91 41 97 41 6 0 11 5 11 10 0 6 6 10 13 10 6 0 50
23 96 50 46 28 86 50 88 50 6 0 214 142 238 162 11 10 23 16 26 15 3 -1 17 10
31 26 14 15 30 27 36 27 6 0 12 4 14 8 2 5 39 39 83 77 96 83 265 253 265 266
0 6 5 7 10 4 6 -3 10 -2 10 3 0 8 15 27 80 102 26 30 75 133 85 180 45 205
-49 424 -224 523 -31 18 -59 32 -63 33 -5 1 -9 2 -10 4 -3 2 -13 4 -68 18 -64
16 -242 4 -264 -18 -5 -5 -18 -10 -28 -10 -10 0 -27 -9 -38 -20 -11 -11 -20
-18 -20 -15 0 13 -59 -34 -105 -84 -106 -115 -252 -259 -300 -297 -27 -21 -52
-42 -55 -45 -28 -32 -329 -219 -354 -219 -9 0 -16 -4 -16 -9 0 -7 -43 -29 -70
-35 -3 -1 -9 -4 -15 -8 -29 -18 -243 -95 -285 -102 -3 -1 -11 -5 -17 -9 -7 -5
-13 -6 -13 -3 0 3 -18 -1 -40 -9 -22 -8 -43 -14 -45 -14 -3 1 -38 -5 -78 -12
-39 -7 -80 -13 -89 -12 -10 0 -18 -2 -18 -6 0 -3 -15 -7 -33 -7 -112 -5 -185
-12 -195 -18 -7 -4 -12 -3 -12 1 0 5 -24 7 -52 5 -67 -4 -61 -4 -143 3 -91 7
-150 13 -200 21 -22 3 -47 6 -55 8 -8 1 -19 4 -25 7 -5 4 -20 5 -32 4 -13 -1
-23 3 -23 8 0 6 -3 8 -6 5 -3 -4 -20 -2 -37 4 -18 5 -41 11 -52 12 -36 6 -229
73 -305 107 -198 88 -364 190 -539 333 -14 12 -79 75 -144 141 -199 203 -208
212 -235 226 -15 8 -29 17 -32 20 -18 22 -134 51 -212 54 -48 1 -89 1 -91 -1z"/>
</g>
</svg>
